<?xml version="1.0" standalone="no"?>
<!DOCTYPE svg PUBLIC "-//W3C//DTD SVG 1.1//EN" "http://www.w3.org/Graphics/SVG/1.1/DTD/svg11.dtd" >
<svg xmlns="http://www.w3.org/2000/svg">
<metadata>
<json>
<![CDATA[
{
	"fontFamily": "tianicon",
	"majorVersion": 1,
	"minorVersion": 0,
	"version": "Version 1.0",
	"fontId": "tianicon",
	"psName": "tianicon",
	"subFamily": "Regular",
	"fullName": "tianicon",
	"description": "Font generated by IcoMoon."
}
]]>
</json>
</metadata>
<defs>
<font id="tianicon" horiz-adv-x="1024">
<font-face units-per-em="1024" ascent="960" descent="-64" />
<missing-glyph horiz-adv-x="1024" />
<glyph unicode="&#x20;" horiz-adv-x="512" d="" />
<glyph unicode="&#x75;" glyph-name="tui-unlock" data-tags="tui-unlock" d="M768 896c105.87 0 192-86.13 192-192v-192h-128v192c0 35.29-28.71 64-64 64h-128c-35.29 0-64-28.71-64-64v-192h16c26.4 0 48-21.6 48-48v-480c0-26.4-21.6-48-48-48h-544c-26.4 0-48 21.6-48 48v480c0 26.4 21.6 48 48 48h400v192c0 105.87 86.13 192 192 192h128z" />
<glyph unicode="&#x76d1;" glyph-name="tui-clock" d="M658.744 210.745l-210.744 210.746v282.51h128v-229.49l173.256-173.254zM512 960.001c-282.77 0-512-229.23-512-512s229.23-512 512-512 512 229.23 512 512-229.23 512-512 512zM512 64.001c-212.078 0-384 171.922-384 384s171.922 384 384 384c212.078 0 384-171.922 384-384s-171.922-384-384-384z" />
<glyph unicode="&#xe600;" glyph-name="tui-image" data-tags="image, picture, photo, graphic" d="M959.884 832c0.040-0.034 0.082-0.076 0.116-0.116v-767.77c-0.034-0.040-0.076-0.082-0.116-0.116h-895.77c-0.040 0.034-0.082 0.076-0.114 0.116v767.772c0.034 0.040 0.076 0.082 0.114 0.114h895.77zM960 896h-896c-35.2 0-64-28.8-64-64v-768c0-35.2 28.8-64 64-64h896c35.2 0 64 28.8 64 64v768c0 35.2-28.8 64-64 64v0zM832 672c0-53.020-42.98-96-96-96s-96 42.98-96 96 42.98 96 96 96 96-42.98 96-96zM896 128h-768v128l224 384 256-320h64l224 192z" />
<glyph unicode="&#xe601;" glyph-name="tui-loading" data-tags="spinner, loading, loading-wheel, busy, wait" d="M384 832c0 70.692 57.308 128 128 128s128-57.308 128-128c0-70.692-57.308-128-128-128s-128 57.308-128 128zM655.53 719.53c0 70.692 57.308 128 128 128s128-57.308 128-128c0-70.692-57.308-128-128-128s-128 57.308-128 128zM832 448c0 35.346 28.654 64 64 64s64-28.654 64-64c0-35.346-28.654-64-64-64s-64 28.654-64 64zM719.53 176.47c0 35.346 28.654 64 64 64s64-28.654 64-64c0-35.346-28.654-64-64-64s-64 28.654-64 64zM448.002 64c0 0 0 0 0 0 0 35.346 28.654 64 64 64s64-28.654 64-64c0 0 0 0 0 0 0-35.346-28.654-64-64-64s-64 28.654-64 64zM176.472 176.47c0 0 0 0 0 0 0 35.346 28.654 64 64 64s64-28.654 64-64c0 0 0 0 0 0 0-35.346-28.654-64-64-64s-64 28.654-64 64zM144.472 719.53c0 0 0 0 0 0 0 53.019 42.981 96 96 96s96-42.981 96-96c0 0 0 0 0 0 0-53.019-42.981-96-96-96s-96 42.981-96 96zM56 448c0 39.765 32.235 72 72 72s72-32.235 72-72c0-39.765-32.235-72-72-72s-72 32.235-72 72z" />
<glyph unicode="&#xe602;" glyph-name="tui-loack" data-tags="lock, secure, private, encrypted" d="M592 512h-16v192c0 105.87-86.13 192-192 192h-128c-105.87 0-192-86.13-192-192v-192h-16c-26.4 0-48-21.6-48-48v-480c0-26.4 21.6-48 48-48h544c26.4 0 48 21.6 48 48v480c0 26.4-21.6 48-48 48zM192 704c0 35.29 28.71 64 64 64h128c35.29 0 64-28.71 64-64v-192h-256v192z" />
<glyph unicode="&#xe603;" glyph-name="tui-unloak" data-tags="unlocked, lock-open" d="M768 896c105.87 0 192-86.13 192-192v-192h-128v192c0 35.29-28.71 64-64 64h-128c-35.29 0-64-28.71-64-64v-192h16c26.4 0 48-21.6 48-48v-480c0-26.4-21.6-48-48-48h-544c-26.4 0-48 21.6-48 48v480c0 26.4 21.6 48 48 48h400v192c0 105.87 86.13 192 192 192h128z" />
<glyph unicode="&#xe604;" glyph-name="tui-up" data-tags="circle-up, up, circle-top, arrow" d="M0 448c0-282.77 229.23-512 512-512s512 229.23 512 512-229.23 512-512 512-512-229.23-512-512zM928 448c0-229.75-186.25-416-416-416s-416 186.25-416 416 186.25 416 416 416 416-186.25 416-416zM706.744 290.744l90.512 90.512-285.256 285.254-285.254-285.256 90.508-90.508 194.746 194.744z" />
<glyph unicode="&#xe605;" glyph-name="tui-right" data-tags="circle-right, right, circle-next, arrow" d="M512 960c-282.77 0-512-229.23-512-512s229.23-512 512-512 512 229.23 512 512-229.23 512-512 512zM512 32c-229.75 0-416 186.25-416 416s186.25 416 416 416 416-186.25 416-416-186.25-416-416-416zM354.744 253.256l90.512-90.512 285.254 285.256-285.256 285.254-90.508-90.508 194.744-194.746z" />
<glyph unicode="&#xe606;" glyph-name="tui-down" data-tags="circle-down, down, circle-bottom, arrow" d="M1024 448c0 282.77-229.23 512-512 512s-512-229.23-512-512 229.23-512 512-512 512 229.23 512 512zM96 448c0 229.75 186.25 416 416 416s416-186.25 416-416-186.25-416-416-416-416 186.25-416 416zM317.256 605.256l-90.512-90.512 285.256-285.254 285.254 285.256-90.508 90.508-194.746-194.744z" />
<glyph unicode="&#xe607;" glyph-name="tui-left" data-tags="circle-left, left, circle-previous, arrow" d="M512-64c282.77 0 512 229.23 512 512s-229.23 512-512 512-512-229.23-512-512 229.23-512 512-512zM512 864c229.75 0 416-186.25 416-416s-186.25-416-416-416-416 186.25-416 416 186.25 416 416 416zM669.256 642.744l-90.512 90.512-285.254-285.256 285.256-285.254 90.508 90.508-194.744 194.746z" />
<glyph unicode="&#xe608;" glyph-name="tui-off" horiz-adv-x="1040" d="M744.030 807.932v-161.556l-0.22-12.094c64.283-54.082 76.876-120.563 76.876-209.217 0-162.945-137.227-295.033-306.541-295.033s-306.542 132.088-306.542 295.033c0 88.654 12.628 154.205 76.876 208.287l-0.22 83.109v91.471c-137.271-76.532-229.885-219.15-229.885-382.867 0-244.419 205.886-442.547 459.771-442.547s459.77 198.129 459.77 442.547c0 163.718-92.615 306.334-229.885 382.867zM472.348 498.861h83.594c19.269 0 34.859 15.592 34.859 34.817v372.913c0 19.224-15.59 34.818-34.859 34.818h-83.594c-19.268 0-34.859-15.595-34.859-34.818v-372.912c0-19.226 15.591-34.818 34.859-34.818z" />
<glyph unicode="&#xe609;" glyph-name="tui-user" d="M513.507 527.592c112.942 0 204.615 93.336 204.615 208.501 0 115.284-91.674 208.619-204.615 208.619-113.101 0-204.616-93.334-204.616-208.619 0-115.165 91.516-208.501 204.616-208.501zM513.507 464.372c-159.991 0-372.533-132.139-372.533-295.407v-217.674h745.066v217.674c0 163.267-212.622 295.407-372.532 295.407z" />
<glyph unicode="&#xe60a;" glyph-name="tui-remove" data-tags="cross, cancel, close, quit, remove" d="M1014.662 137.34c-0.004 0.004-0.008 0.008-0.012 0.010l-310.644 310.65 310.644 310.65c0.004 0.004 0.008 0.006 0.012 0.010 3.344 3.346 5.762 7.254 7.312 11.416 4.246 11.376 1.824 24.682-7.324 33.83l-146.746 146.746c-9.148 9.146-22.45 11.566-33.828 7.32-4.16-1.55-8.070-3.968-11.418-7.31 0-0.004-0.004-0.006-0.008-0.010l-310.648-310.652-310.648 310.65c-0.004 0.004-0.006 0.006-0.010 0.010-3.346 3.342-7.254 5.76-11.414 7.31-11.38 4.248-24.682 1.826-33.83-7.32l-146.748-146.748c-9.148-9.148-11.568-22.452-7.322-33.828 1.552-4.16 3.97-8.072 7.312-11.416 0.004-0.002 0.006-0.006 0.010-0.010l310.65-310.648-310.65-310.652c-0.002-0.004-0.006-0.006-0.008-0.010-3.342-3.346-5.76-7.254-7.314-11.414-4.248-11.376-1.826-24.682 7.322-33.83l146.748-146.746c9.15-9.148 22.452-11.568 33.83-7.322 4.16 1.552 8.070 3.97 11.416 7.312 0.002 0.004 0.006 0.006 0.010 0.010l310.648 310.65 310.648-310.65c0.004-0.002 0.008-0.006 0.012-0.008 3.348-3.344 7.254-5.762 11.414-7.314 11.378-4.246 24.684-1.826 33.828 7.322l146.746 146.748c9.148 9.148 11.57 22.454 7.324 33.83-1.552 4.16-3.97 8.068-7.314 11.414z" />
<glyph unicode="&#xe60b;" glyph-name="tui-expand" d="M130.428 503.011h777.691v-141.405h-777.691v141.405z" />
<glyph unicode="&#xe60c;" glyph-name="tui-collapse" horiz-adv-x="1008" d="M918.448 503.011h-318.145v318.162h-141.398v-318.162h-318.109v-141.405h318.109v-318.162h141.398v318.162h318.145z" />
<glyph unicode="&#xe60d;" glyph-name="tui-settings" d="M993.319 522.985h-47.707c-21.858 0-45.016 17.089-51.534 37.956l-27.361 66.537c-10.339 19.254-6.096 47.646 9.289 63.113l33.835 33.772c15.511 15.51 15.511 40.814 0 56.261l-56.237 56.176c-15.467 15.448-40.732 15.448-56.242 0l-33.836-33.794c-15.385-15.448-43.84-19.671-63.133-9.333l-66.455 27.364c-20.805 6.452-37.956 29.653-37.956 51.51v47.688c0 21.815-17.947 39.763-39.72 39.763h-79.442c-21.899 0-39.803-17.949-39.803-39.763v-47.687c0-21.857-17.026-45.058-37.917-51.51l-66.537-27.364c-19.293-10.339-47.623-6.157-63.047 9.333l-33.922 33.794c-15.467 15.448-40.73 15.448-56.155 0l-56.201-56.176c-15.467-15.449-15.467-40.751 0-56.218l33.753-33.815c15.509-15.467 19.713-43.86 9.332-63.113l-27.365-66.58c-6.472-20.868-29.632-37.952-51.531-37.952l-47.666 0.040c-21.857 0-39.763-17.865-39.763-39.739v-79.423c0-21.898 17.907-39.806 39.763-39.806h47.666c21.899-0.040 45.017-17.128 51.448-37.933l27.447-66.536c10.299-19.293 6.136-47.772-9.332-63.158l-33.837-33.791c-15.383-15.469-15.383-40.752 0-56.241l56.283-56.218c15.426-15.449 40.688-15.449 56.155 0l33.879 33.834c15.384 15.405 43.758 19.632 62.965 9.207l66.663-27.362c20.891-6.495 37.917-29.654 37.917-51.533v-47.559c0-21.816 17.861-39.721 39.803-39.721h79.442c21.773 0 39.72 17.905 39.72 39.721v47.559c0 21.878 17.152 45.039 37.956 51.533l66.58 27.362c19.25 10.425 47.708 6.198 63.177-9.207l33.666-33.834c15.51-15.449 40.775-15.449 56.242 0l56.237 56.218c15.511 15.489 15.511 40.772 0 56.241l-33.835 33.791c-15.384 15.386-19.629 43.864-9.289 63.158l27.361 66.536c6.517 20.805 29.762 37.893 51.534 37.893h47.707c21.815 0 39.679 17.865 39.679 39.74v79.529c0.002 21.871-17.862 39.736-39.677 39.736zM715.273 443.565c0-109.749-88.943-198.626-198.648-198.626-109.748 0-198.687 88.877-198.687 198.626 0 109.706 88.941 198.645 198.687 198.645 109.706 0 198.648-88.941 198.648-198.645z" />
<glyph unicode="&#xe610;" glyph-name="tui-calendar" d="M823.962 444.917h-103.433v-103.46h103.433v103.46zM823.962 272.5h-103.433v-103.423h103.433v103.423zM651.571 617.296h-103.438v-103.417h103.438v103.417zM823.962 617.296h-103.433v-103.417h103.433v103.417zM789.486 858.654h-68.957v-103.443h68.957v103.443zM548.133 858.654h-68.957v-103.443h68.957v103.443zM306.785 858.654h-68.962v-103.443h68.962v103.443zM823.962 824.183v-103.46h-137.909v103.46h-103.438v-103.46h-137.914v103.46h-103.438v-103.46h-137.919v103.46h-137.914v-793.078h896.775v793.078h-138.241zM893.245 100.057h-758.861v586.196h758.861v-586.196zM479.176 272.5h-103.438v-103.423h103.438v103.423zM306.785 444.917h-103.443v-103.46h103.443v103.46zM479.176 444.917h-103.438v-103.46h103.438v103.46zM479.176 617.296h-103.438v-103.417h103.438v103.417zM651.571 444.917h-103.438v-103.46h103.438v103.46zM651.571 272.5h-103.438v-103.423h103.438v103.423zM306.785 272.5h-103.443v-103.423h103.443v103.423z" />
<glyph unicode="&#xe611;" glyph-name="tui-selected" d="M391.67 198.083c5.974-5.118 19.396-6.441 23.57 2.805 7.974 15.914 22.149 43.504 41.795 79.068 81.918 148.273 258.95 435.041 478.16 591.241 0 0-261.989-65.974-539.771-448.726l-193.015 174.318-113.605-127.845 239.624-212.874 63.239-57.989z" />
<glyph unicode="&#xe61a;" glyph-name="tui-edit" d="M860.006-17.569h-697.281c-64.175 0-116.21 52.034-116.21 116.213v697.276c0 64.178 52.035 116.212 116.21 116.212h522.957l-116.21-116.212h-348.639c-32.119 0-58.11-25.99-58.11-58.107v-581.063c0-32.059 25.992-58.106 58.11-58.106h581.062c32.117 0 58.109 26.046 58.109 58.106v348.638l116.21 116.212v-522.956c0-64.18-52.037-116.213-116.21-116.213zM860.006 795.921l-58.109 58.108v58.107c0 0 174.318 1.816 174.318-174.318h-58.107l-58.105 58.106zM337.047 272.964v174.319h58.107l116.214-116.213v-58.106h-174.321zM860.006 679.71l-290.533-290.532-116.214 116.21 290.532 290.533 116.215-116.211z" />
<glyph unicode="&#xe61b;" glyph-name="tui-delete" d="M319.039 193.722h127.619v319.038h-127.619v-319.038zM701.89 767.992v63.807c0 70.475-57.142 127.615-127.615 127.615h-127.617c-70.476 0-127.619-57.14-127.619-127.615v-63.807h-319.039v-63.808c0-35.207 28.54-63.807 63.808-63.807v-574.272c0-70.475 57.142-127.615 127.614-127.615h638.082c70.475 0 127.618 57.14 127.618 127.615v574.271c35.205 0 63.807 28.601 63.807 63.807v63.808h-319.039zM446.658 831.799h127.617v-63.807h-127.617v63.807zM829.504 129.91c0-35.206-28.601-63.807-63.807-63.807h-510.466c-35.268 0-63.808 28.601-63.808 63.807v446.658c0 35.268 28.54 63.807 63.808 63.807h510.466c35.205 0 63.807-28.539 63.807-63.807v-446.658zM574.274 193.722h127.615v319.038h-127.615v-319.038z" />
<glyph unicode="&#xe61f;" glyph-name="tui-remove2" d="M82.496 138.721l738.736 738.8c19.008 18.992 49.76 18.992 68.72 0l51.584-51.536c18.96-18.992 18.96-49.76 0-68.736l-738.768-738.784c-18.976-18.976-49.744-18.976-68.72 0l-51.552 51.568c-18.976 18.96-18.976 49.76 0 68.688zM202.768 877.521l738.768-738.8c18.96-18.928 18.96-49.712 0-68.688l-51.584-51.568c-18.96-18.976-49.712-18.976-68.72 0l-738.736 738.8c-18.976 18.976-18.976 49.744 0 68.736l51.552 51.536c18.96 18.976 49.744 18.976 68.72-0.016z" />
<glyph unicode="&#xe651;" glyph-name="tui-grid" d="M418.122 409.563l-324.336-0.544c-35.748 0-61.467-20.269-61.467-58.396l-0.821-321.956c0-38.243 27.357-61.164 63.963-61.164h322.66c37.461 0 54.887 27.055 54.887 62.84v322.66c0 27.404-27.484 56.563-54.887 56.563zM393.171 50.299h-279.427v279.428h279.427v-279.428zM937.057 409.563l-324.336-0.544c-35.783 0-59.019-20.269-59.019-58.396l-0.856-321.956c0-38.243 24.948-58.202 61.515-58.202h322.697c37.425 0 54.888 24.093 54.888 59.876v322.66c0 27.404-27.522 56.563-54.888 56.563zM912.107 50.299h-279.426v279.428h279.426v-279.428zM937.057 928.501l-324.336-0.544c-35.783 0-59.019-20.271-59.019-58.319l-0.856-322.037c0-38.24 24.948-58.2 61.515-58.2h322.697c37.425 0 54.888 24.091 54.888 59.877v322.66c0 27.405-27.522 56.564-54.888 56.564zM418.121 928.501h-326.743c-35.748 0-59.059-20.815-59.059-58.94l-0.821-321.956c0-38.243 24.948-58.202 61.554-58.202h325.068c37.462 0 54.887 24.093 54.887 59.876v322.66c0.001 27.404-27.483 56.563-54.887 56.563zM393.171 569.237h-279.427v279.427h279.427v-279.427z" />
<glyph unicode="&#xe65f;" glyph-name="tui-help" d="M503.403 749.521c-120.72 0-197.098-79.087-199.569-196.494h120.718c0 58.31 25.462 100.417 84.584 100.417 43.502 0 69.804-23.801 69.804-73.906 2.472-88.659-119.88-75.534-131.399-217.586v-24.352h110.885v18.593c13.938 99.364 149.388 78.008 149.388 234.841-0.001 62.41-50.077 158.487-204.411 158.487zM512.295 928.392c-264.586 0-479.044-214.481-479.044-479.043 0-264.557 214.458-479.014 479.044-479.014 264.532 0 479.041 214.458 479.041 479.014 0 264.56-214.508 479.043-479.041 479.043zM512.346 58.757c-215.615 0-390.408 174.796-390.408 390.434 0 215.64 174.794 390.435 390.408 390.435 215.666 0 390.463-174.794 390.463-390.435 0-215.639-174.797-390.434-390.463-390.434zM451.961 173.009h107.728v111.803h-107.728v-111.803z" />
<glyph unicode="&#xe66a;" glyph-name="tui-home" d="M931.074 326.587h-59.927v-300.038c0-33.129-26.8-60.007-59.852-60.007h-599.181c-33.129 0-59.929 26.878-59.929 60.007v300.038h-59.928c-33.092 0-59.891 26.879-59.891 60.048v118.493c-1.486 17.776 3.751 35.862 17.345 49.498l141.426 133.101v240.424h80.127v-160.257l132.596 142.938c13.558 13.673 31.647 18.909 49.381 17.424h116.854c17.734 1.486 35.865-3.75 49.418-17.424l354.149-356.208c13.596-13.635 18.908-31.723 17.385-49.498v-118.492c-0.037-33.17-26.84-60.048-59.969-60.048zM912.324 487.39l-360.596 360.594h-80.049l-360.634-360.594v-80.089l120.915 0.158v-360.947l199.596 0.195v280.506h160.257v-280.506l199.597-0.195v360.126l120.914 0.74v80.012z" />
</font>
</defs>
</svg>
